<svg width="54" height="42" viewBox="0 0 54 42" fill="none" xmlns="http://www.w3.org/2000/svg">
    <path
        d="M53.9822 17.4356C53.685 11.7572 48.5887 7.5 42.9028 7.5H42.0244C37.0725 7.5 32.2509 5.97656 28.1737 3.165C24.2372 0.45 19.17 -0.736875 13.8103 0.474375C12.1219 0.855 -0.00749652 4.335 3.47664e-06 18C0.00375347 24.6516 3.62625 30.45 8.99906 33.5634V40.5C8.99906 41.3287 9.67031 42 10.4991 42H11.9991C12.8278 42 13.4991 41.3287 13.4991 40.5V35.4131C14.9391 35.7844 16.4428 36 17.9991 36C18.5091 36 19.0003 35.9316 19.4991 35.8894V40.5C19.4991 41.3287 20.1703 42 20.9991 42H22.4991C23.3278 42 23.9991 41.3287 23.9991 40.5V34.9284C25.3341 34.4541 26.6128 33.8606 27.7809 33.0994C32.069 30.3047 36.9244 28.5 42.0431 28.5C44.4319 28.5 43.544 28.4709 44.204 28.4269L51.18 41.2181C51.4481 41.7084 51.9581 42 52.4972 42C52.62 42 52.7447 41.985 52.8675 41.9531C53.5322 41.7844 53.9972 41.1853 53.9972 40.5C53.9972 40.5 54.0103 17.9775 53.9822 17.4356ZM43.4972 20.25C42.255 20.25 41.2472 19.2422 41.2472 18C41.2472 16.7569 42.255 15.75 43.4972 15.75C44.7394 15.75 45.7472 16.7569 45.7472 18C45.7472 19.2422 44.7394 20.25 43.4972 20.25ZM50.9972 34.6172L47.2603 27.7659C48.6778 27.2194 49.9537 26.3972 50.9972 25.3303V34.6172Z"
        fill="white" />
</svg>